<svg width="80" height="80" viewBox="0 0 80 80" fill="none" xmlns="http://www.w3.org/2000/svg">
<g clip-path="url(#clip0_1_2)">
<path d="M62.625 58.1765C62.5078 58.3174 62.2927 58.3211 62.1706 58.1844L52.1306 46.9412C51.9596 46.7497 52.0924 46.4459 52.3491 46.4414L72.0307 46.0979C72.2874 46.0934 72.4308 46.3924 72.2666 46.5897L62.625 58.1765Z" fill="white"/>
<path fill-rule="evenodd" clip-rule="evenodd" d="M79.5721 45.8718L64.2097 46.2606C61.4307 57.0379 51.6452 65 40 65C32.8657 65 26.4293 62.0116 21.8744 57.2182L10.3832 66.8862C17.7006 74.942 28.2596 80 40 80C60.0966 80 76.7318 65.1795 79.5721 45.8718ZM70.8933 14.5895L60.0763 25.0997C55.5201 18.9708 48.2238 15 40 15C26.1929 15 15 26.1929 15 40C15 40.6353 15.0237 41.2652 15.0703 41.8886L0.0428896 41.8689C0.0144014 41.2495 0 40.6264 0 40C0 17.9086 17.9086 0 40 0C52.4419 0 63.557 5.68051 70.8933 14.5895Z" fill="white"/>
</g>
<defs>
<clipPath id="clip0_1_2">
<rect width="80" height="80" fill="white"/>
</clipPath>
</defs>
</svg>